# xmcd CD database file
#
# Track frame offsets:
#	150
#	12960
#	29835
#	42475
#	52371
#	69640
#	90331
#	100531
#	117331
#	137863
#	151504
#	166804
#	185854
#	199528
#	219778
#
# Disc length: 3228 seconds
#
# Revision: 0
# Processed by: cddbd v1.5.2PL0 Copyright (c) Steve Scherf et al.
# Submitted via: CDex 1.51
#
DISCID=cc0c9a0f
DTITLE=Nanne and Ankie - The Game of Change
DYEAR=2004
DGENRE=New Age
TTITLE0=Change
TTITLE1=You can not change and remain the same
TTITLE2=It wite Wiif
TTITLE3=Ran-kvarteto
TTITLE4=It´s so Simple
TTITLE5=I stand one the Quay
TTITLE6=All I want do to is fly
TTITLE7=If you honour Self
TTITLE8=Oanspield
TTITLE9=Starchild
TTITLE10=Puppets
TTITLE11=De Wind waait
TTITLE12=The Forest
TTITLE13=Procesio multkolora
TTITLE14=The Journey
EXTD=YEAR: 2004
EXTT0=
EXTT1=
EXTT2=
EXTT3=
EXTT4=
EXTT5=
EXTT6=
EXTT7=
EXTT8=
EXTT9=
EXTT10=
EXTT11=
EXTT12=
EXTT13=
EXTT14=
PLAYORDER=
